<?xml version="1.0" encoding="UTF-8" standalone="no"?>
<!DOCTYPE svg PUBLIC "-//W3C//DTD SVG 1.1//EN"
 "http://www.w3.org/Graphics/SVG/1.1/DTD/svg11.dtd">
<!-- Generated by graphviz version 2.42.4 (0)
 -->
<!-- Title: structs Pages: 1 -->
<svg width="326pt" height="420pt"
 viewBox="0.00 0.00 326.00 420.00" xmlns="http://www.w3.org/2000/svg" xmlns:xlink="http://www.w3.org/1999/xlink">
<g id="graph0" class="graph" transform="scale(1 1) rotate(0) translate(4 416)">
<title>structs</title>
<polygon fill="white" stroke="transparent" points="-4,4 -4,-416 322,-416 322,4 -4,4"/>
<!-- cams -->
<g id="node1" class="node">
<title>cams</title>
<polygon fill="none" stroke="black" points="114.5,-277 114.5,-298 185.5,-298 185.5,-277 114.5,-277"/>
<text text-anchor="start" x="129.5" y="-284.8" font-family="Times,serif" font-weight="bold" font-size="14.00">cams</text>
<polygon fill="none" stroke="black" points="114.5,-256 114.5,-277 138.5,-277 138.5,-256 114.5,-256"/>
<text text-anchor="start" x="117.5" y="-262.8" font-family="Times,serif" font-size="14.00">🔑</text>
<polygon fill="none" stroke="black" points="138.5,-256 138.5,-277 185.5,-277 185.5,-256 138.5,-256"/>
<text text-anchor="start" x="141.5" y="-262.8" font-family="Times,serif" font-size="14.00">rowid</text>
<polygon fill="none" stroke="black" points="114.5,-235 114.5,-256 138.5,-256 138.5,-235 114.5,-235"/>
<text text-anchor="start" x="121.5" y="-241.8" font-family="Times,serif" font-size="14.00"> </text>
<polygon fill="none" stroke="black" points="138.5,-235 138.5,-256 185.5,-256 185.5,-235 138.5,-235"/>
<text text-anchor="start" x="152.5" y="-241.8" font-family="Times,serif" font-size="14.00">stl</text>
<polygon fill="none" stroke="black" points="114.5,-214 114.5,-235 138.5,-235 138.5,-214 114.5,-214"/>
<text text-anchor="start" x="121.5" y="-220.8" font-family="Times,serif" font-size="14.00"> </text>
<polygon fill="none" stroke="black" points="138.5,-214 138.5,-235 185.5,-235 185.5,-214 138.5,-214"/>
<text text-anchor="start" x="145" y="-220.8" font-family="Times,serif" font-size="14.00">posx</text>
<polygon fill="none" stroke="black" points="114.5,-193 114.5,-214 138.5,-214 138.5,-193 114.5,-193"/>
<text text-anchor="start" x="121.5" y="-199.8" font-family="Times,serif" font-size="14.00"> </text>
<polygon fill="none" stroke="black" points="138.5,-193 138.5,-214 185.5,-214 185.5,-193 138.5,-193"/>
<text text-anchor="start" x="145" y="-199.8" font-family="Times,serif" font-size="14.00">posy</text>
<polygon fill="none" stroke="black" points="114.5,-172 114.5,-193 138.5,-193 138.5,-172 114.5,-172"/>
<text text-anchor="start" x="121.5" y="-178.8" font-family="Times,serif" font-size="14.00"> </text>
<polygon fill="none" stroke="black" points="138.5,-172 138.5,-193 185.5,-193 185.5,-172 138.5,-172"/>
<text text-anchor="start" x="145.5" y="-178.8" font-family="Times,serif" font-size="14.00">posz</text>
<polygon fill="none" stroke="black" points="114.5,-151 114.5,-172 138.5,-172 138.5,-151 114.5,-151"/>
<text text-anchor="start" x="121.5" y="-157.8" font-family="Times,serif" font-size="14.00"> </text>
<polygon fill="none" stroke="black" points="138.5,-151 138.5,-172 185.5,-172 185.5,-151 138.5,-151"/>
<text text-anchor="start" x="154.5" y="-157.8" font-family="Times,serif" font-size="14.00">tx</text>
<polygon fill="none" stroke="black" points="114.5,-130 114.5,-151 138.5,-151 138.5,-130 114.5,-130"/>
<text text-anchor="start" x="121.5" y="-136.8" font-family="Times,serif" font-size="14.00"> </text>
<polygon fill="none" stroke="black" points="138.5,-130 138.5,-151 185.5,-151 185.5,-130 138.5,-130"/>
<text text-anchor="start" x="154.5" y="-136.8" font-family="Times,serif" font-size="14.00">ty</text>
<polygon fill="none" stroke="black" points="114.5,-109 114.5,-130 138.5,-130 138.5,-109 114.5,-109"/>
<text text-anchor="start" x="121.5" y="-115.8" font-family="Times,serif" font-size="14.00"> </text>
<polygon fill="none" stroke="black" points="138.5,-109 138.5,-130 185.5,-130 185.5,-109 138.5,-109"/>
<text text-anchor="start" x="155" y="-115.8" font-family="Times,serif" font-size="14.00">tz</text>
<polygon fill="none" stroke="black" points="114.5,-88 114.5,-109 138.5,-109 138.5,-88 114.5,-88"/>
<text text-anchor="start" x="121.5" y="-94.8" font-family="Times,serif" font-size="14.00"> </text>
<polygon fill="none" stroke="black" points="138.5,-88 138.5,-109 185.5,-109 185.5,-88 138.5,-88"/>
<text text-anchor="start" x="148.5" y="-94.8" font-family="Times,serif" font-size="14.00">upx</text>
<polygon fill="none" stroke="black" points="114.5,-67 114.5,-88 138.5,-88 138.5,-67 114.5,-67"/>
<text text-anchor="start" x="121.5" y="-73.8" font-family="Times,serif" font-size="14.00"> </text>
<polygon fill="none" stroke="black" points="138.5,-67 138.5,-88 185.5,-88 185.5,-67 138.5,-67"/>
<text text-anchor="start" x="148.5" y="-73.8" font-family="Times,serif" font-size="14.00">upy</text>
<polygon fill="none" stroke="black" points="114.5,-46 114.5,-67 138.5,-67 138.5,-46 114.5,-46"/>
<text text-anchor="start" x="121.5" y="-52.8" font-family="Times,serif" font-size="14.00"> </text>
<polygon fill="none" stroke="black" points="138.5,-46 138.5,-67 185.5,-67 185.5,-46 138.5,-46"/>
<text text-anchor="start" x="149" y="-52.8" font-family="Times,serif" font-size="14.00">upz</text>
<polygon fill="none" stroke="black" points="114.5,-25 114.5,-46 138.5,-46 138.5,-25 114.5,-25"/>
<text text-anchor="start" x="121.5" y="-31.8" font-family="Times,serif" font-size="14.00"> </text>
<polygon fill="none" stroke="black" points="138.5,-25 138.5,-46 185.5,-46 185.5,-25 138.5,-25"/>
<text text-anchor="start" x="146.5" y="-31.8" font-family="Times,serif" font-size="14.00">fovy</text>
<polygon fill="none" stroke="black" points="114.5,-4 114.5,-25 138.5,-25 138.5,-4 114.5,-4"/>
<text text-anchor="start" x="121.5" y="-10.8" font-family="Times,serif" font-size="14.00"> </text>
<polygon fill="none" stroke="black" points="138.5,-4 138.5,-25 185.5,-25 185.5,-4 138.5,-4"/>
<text text-anchor="start" x="147.5" y="-10.8" font-family="Times,serif" font-size="14.00">proj</text>
</g>
<!-- stls -->
<g id="node4" class="node">
<title>stls</title>
<polygon fill="none" stroke="black" points="239.5,-321 239.5,-342 310.5,-342 310.5,-321 239.5,-321"/>
<text text-anchor="start" x="260.5" y="-328.8" font-family="Times,serif" font-weight="bold" font-size="14.00">stls</text>
<polygon fill="none" stroke="black" points="239.5,-300 239.5,-321 263.5,-321 263.5,-300 239.5,-300"/>
<text text-anchor="start" x="242.5" y="-306.8" font-family="Times,serif" font-size="14.00">🔑</text>
<polygon fill="none" stroke="black" points="263.5,-300 263.5,-321 310.5,-321 310.5,-300 263.5,-300"/>
<text text-anchor="start" x="266.5" y="-306.8" font-family="Times,serif" font-size="14.00">rowid</text>
<polygon fill="none" stroke="black" points="239.5,-279 239.5,-300 263.5,-300 263.5,-279 239.5,-279"/>
<text text-anchor="start" x="246.5" y="-285.8" font-family="Times,serif" font-size="14.00"> </text>
<polygon fill="none" stroke="black" points="263.5,-279 263.5,-300 310.5,-300 310.5,-279 263.5,-279"/>
<text text-anchor="start" x="271" y="-285.8" font-family="Times,serif" font-size="14.00">data</text>
<polygon fill="none" stroke="black" points="239.5,-258 239.5,-279 263.5,-279 263.5,-258 239.5,-258"/>
<text text-anchor="start" x="246.5" y="-264.8" font-family="Times,serif" font-size="14.00"> </text>
<polygon fill="none" stroke="black" points="263.5,-258 263.5,-279 310.5,-279 310.5,-258 263.5,-258"/>
<text text-anchor="start" x="270" y="-264.8" font-family="Times,serif" font-size="14.00">hash</text>
</g>
<!-- cams&#45;&gt;stls -->
<g id="edge2" class="edge">
<title>cams:e&#45;&gt;stls:w</title>
<path fill="none" stroke="black" d="M186.5,-246C219.59,-246 205.49,-298.01 228.62,-308.98"/>
<polygon fill="black" stroke="black" points="228,-312.43 238.5,-311 229.4,-305.57 228,-312.43"/>
</g>
<!-- picks -->
<g id="node2" class="node">
<title>picks</title>
<polygon fill="none" stroke="black" points="8,-277 8,-298 60,-298 60,-277 8,-277"/>
<text text-anchor="start" x="13" y="-284.8" font-family="Times,serif" font-weight="bold" font-size="14.00">picks</text>
<polygon fill="none" stroke="black" points="8,-256 8,-277 24,-277 24,-256 8,-256"/>
<text text-anchor="start" x="11" y="-262.8" font-family="Times,serif" font-size="14.00"> </text>
<polygon fill="none" stroke="black" points="24,-256 24,-277 60,-277 60,-256 24,-256"/>
<text text-anchor="start" x="27" y="-262.8" font-family="Times,serif" font-size="14.00">cam</text>
<polygon fill="none" stroke="black" points="8,-235 8,-256 24,-256 24,-235 8,-235"/>
<text text-anchor="start" x="11" y="-241.8" font-family="Times,serif" font-size="14.00"> </text>
<polygon fill="none" stroke="black" points="24,-235 24,-256 60,-256 60,-235 24,-235"/>
<text text-anchor="start" x="31" y="-241.8" font-family="Times,serif" font-size="14.00">mx</text>
<polygon fill="none" stroke="black" points="8,-214 8,-235 24,-235 24,-214 8,-214"/>
<text text-anchor="start" x="11" y="-220.8" font-family="Times,serif" font-size="14.00"> </text>
<polygon fill="none" stroke="black" points="24,-214 24,-235 60,-235 60,-214 24,-214"/>
<text text-anchor="start" x="31" y="-220.8" font-family="Times,serif" font-size="14.00">my</text>
<polygon fill="none" stroke="black" points="8,-193 8,-214 24,-214 24,-193 8,-193"/>
<text text-anchor="start" x="11" y="-199.8" font-family="Times,serif" font-size="14.00"> </text>
<polygon fill="none" stroke="black" points="24,-193 24,-214 60,-214 60,-193 24,-193"/>
<text text-anchor="start" x="37.5" y="-199.8" font-family="Times,serif" font-size="14.00">x</text>
<polygon fill="none" stroke="black" points="8,-172 8,-193 24,-193 24,-172 8,-172"/>
<text text-anchor="start" x="11" y="-178.8" font-family="Times,serif" font-size="14.00"> </text>
<polygon fill="none" stroke="black" points="24,-172 24,-193 60,-193 60,-172 24,-172"/>
<text text-anchor="start" x="37.5" y="-178.8" font-family="Times,serif" font-size="14.00">y</text>
<polygon fill="none" stroke="black" points="8,-151 8,-172 24,-172 24,-151 8,-151"/>
<text text-anchor="start" x="11" y="-157.8" font-family="Times,serif" font-size="14.00"> </text>
<polygon fill="none" stroke="black" points="24,-151 24,-172 60,-172 60,-151 24,-151"/>
<text text-anchor="start" x="38" y="-157.8" font-family="Times,serif" font-size="14.00">z</text>
</g>
<!-- picks&#45;&gt;cams -->
<g id="edge1" class="edge">
<title>picks:e&#45;&gt;cams:w</title>
<path fill="none" stroke="black" d="M61,-267C80.51,-267 87.78,-267 103.27,-267"/>
<polygon fill="black" stroke="black" points="103.5,-270.5 113.5,-267 103.5,-263.5 103.5,-270.5"/>
</g>
<!-- stldescs -->
<g id="node3" class="node">
<title>stldescs</title>
<polygon fill="none" stroke="black" points="112.5,-387 112.5,-408 187.5,-408 187.5,-387 112.5,-387"/>
<text text-anchor="start" x="118" y="-394.8" font-family="Times,serif" font-weight="bold" font-size="14.00">stldescs</text>
<polygon fill="none" stroke="black" points="112.5,-366 112.5,-387 128.5,-387 128.5,-366 112.5,-366"/>
<text text-anchor="start" x="115.5" y="-372.8" font-family="Times,serif" font-size="14.00"> </text>
<polygon fill="none" stroke="black" points="128.5,-366 128.5,-387 187.5,-387 187.5,-366 128.5,-366"/>
<text text-anchor="start" x="148.5" y="-372.8" font-family="Times,serif" font-size="14.00">stl</text>
<polygon fill="none" stroke="black" points="112.5,-345 112.5,-366 128.5,-366 128.5,-345 112.5,-345"/>
<text text-anchor="start" x="115.5" y="-351.8" font-family="Times,serif" font-size="14.00"> </text>
<polygon fill="none" stroke="black" points="128.5,-345 128.5,-366 187.5,-366 187.5,-345 128.5,-345"/>
<text text-anchor="start" x="131.5" y="-351.8" font-family="Times,serif" font-size="14.00">module</text>
<polygon fill="none" stroke="black" points="112.5,-324 112.5,-345 128.5,-345 128.5,-324 112.5,-324"/>
<text text-anchor="start" x="115.5" y="-330.8" font-family="Times,serif" font-size="14.00"> </text>
<polygon fill="none" stroke="black" points="128.5,-324 128.5,-345 187.5,-345 187.5,-324 128.5,-324"/>
<text text-anchor="start" x="141.5" y="-330.8" font-family="Times,serif" font-size="14.00">desc</text>
</g>
<!-- stldescs&#45;&gt;stls -->
<g id="edge3" class="edge">
<title>stldescs:e&#45;&gt;stls:w</title>
<path fill="none" stroke="black" d="M188.5,-377C221.28,-377 206.14,-324.65 228.43,-313.2"/>
<polygon fill="black" stroke="black" points="229.48,-316.55 238.5,-311 227.98,-309.71 229.48,-316.55"/>
</g>
</g>
</svg>
